<svg id="Capa_1" data-name="Capa 1" xmlns="http://www.w3.org/2000/svg" viewBox="0 0 578.32 604.74" fill="whitesmoke"><defs><style>.cls-1{fill:none;}</style></defs><path class="cls-1" d="M162.29,264.33a18,18,0,1,0-31.17,18L169.06,348a18,18,0,1,0,31.17-18Z"/><path class="cls-1" d="M210.81,236.3a18,18,0,0,0-15.62-9,18,18,0,0,0-15.56,27L217.57,320a18,18,0,0,0,31.18-18Z"/><path class="cls-1" d="M225.39,97.28a18,18,0,0,0-12.72,22L252.77,269l2.18,3.78h0a42.08,42.08,0,0,1,30.76-19.94L247.44,110A18,18,0,0,0,225.39,97.28Z"/><path d="M525.43,50.72C502,38.65,479.09,31,457.23,28.11c-28-3.75-54.63.09-79.11,11.41A77.5,77.5,0,0,0,348,64.24a78.63,78.63,0,0,0-14.58,37.4A77.46,77.46,0,0,0,340.09,143c.64,1.38,1.33,2.74,2.05,4.08l-44.47,73.09L266.76,104.83a38,38,0,1,0-73.41,19.67l24.11,90a38,38,0,0,0-59,21c-.15.54-.27,1.09-.4,1.63A38,38,0,0,0,108.71,273v90.92a143.76,143.76,0,0,0,48.58,107.61V578.66a10,10,0,0,0,20,0V486.32q5.14,3.15,10.6,5.89h0c60.63,30.92,114.64,6.26,116.33,5.48a144.38,144.38,0,0,0,22.89-11.37v92.34a10,10,0,0,0,20,0V471.54A143.77,143.77,0,0,0,395.7,363.92V298.55a46.08,46.08,0,0,0-24-40.4h0a622,622,0,0,1,26-71.06,74.1,74.1,0,0,0,15.55.93,12.37,12.37,0,0,1,2.42.11A77.75,77.75,0,0,0,443.58,181c27.83-12.87,35.33-41.33,39.81-58.34.31-1.17.6-2.29.89-3.35,6.76-25,12.1-44.74,38.73-50.47a9.73,9.73,0,0,0,2.42-18.16Zm-312.76,68.6A18,18,0,0,1,247.44,110l38.27,142.82A42.08,42.08,0,0,0,255,272.76h0L252.77,269ZM177.83,240.65a18,18,0,0,1,33-4.35L248.75,302a18,18,0,0,1-31.18,18L179.63,254.3A17.9,17.9,0,0,1,177.83,240.65Zm-48.51,28a18,18,0,0,1,33-4.34L200.23,330a18,18,0,1,1-31.17,18l-37.94-65.71A17.84,17.84,0,0,1,129.32,268.67ZM375.7,298.56v65.37a123.71,123.71,0,0,1-71.44,112,178,178,0,0,1-17.88,5.66l-26.7,4.49A124.84,124.84,0,0,1,212.47,481a11.62,11.62,0,0,0-1.3-.57,123.69,123.69,0,0,1-82.46-116.51V318.17l23,39.87a38,38,0,0,0,70-10.81A38.19,38.19,0,0,0,233.22,349a37.95,37.95,0,0,0,33.51-20.19,41.66,41.66,0,0,0,21.4,7.57A58.18,58.18,0,0,0,273.55,375a10,10,0,0,0,20,0A38.51,38.51,0,0,1,332,336.49h7a10,10,0,0,0,0-20H290.88a22,22,0,0,1,0-44h58.76A26.09,26.09,0,0,1,375.7,298.56ZM477.5,81.5c-12.71,23.53-12,79.51-53.16,86.81a57.67,57.67,0,0,1-14.38.59c-1.31-.09-2.57-.2-3.8-.31a164.89,164.89,0,0,1-22.22-3.21l-1-.25c-.91,1.72-1.81,3.46-2.71,5.24-1.56,3-3.1,6.18-4.65,9.4l-.08.17q-3.45,7.2-6.86,15A608.41,608.41,0,0,0,347,252.49H309.72l37.45-69.7,13.32-23.42,5.83-10.1,2.78-4.81.65-.92c1.37-1.9,2.91-3.94,4.61-6a86.06,86.06,0,0,1,16.81-16.1A41.62,41.62,0,0,1,408.51,114a30.34,30.34,0,0,1,3.4-.32,33.09,33.09,0,0,1,4,.09c7.77.65,11.75,3.35,15.15-5.32,1.48-3.79-.6-6.41-3.54-8.19a30.78,30.78,0,0,0-9.94-3.3,37.21,37.21,0,0,0-12.33.18c-11.93,1.87-30.93,9.14-49.9,34.18a55.94,55.94,0,0,1-1.83-9.16,58.46,58.46,0,0,1,32.74-65h0c15.36-7.11,38-11.21,48.83-11s39.46.9,61.57,10.28a4.94,4.94,0,0,1,1.5,1.29A6.09,6.09,0,0,1,500,61S486.09,65.61,477.5,81.5Z"/></svg>